PathFileType	4	(X/Y/Z)	OpenSim_Sub05_CSStiffKnee_Magnet.trc
DataRate	CameraRate	NumFrames	NumMarkers	Units	OrigDataRate	OrigDataStartFrame	OrigNumFrames
100	100	40	8	m	100	1407	11248
Frame#	Time	torso_imu_offset_imu	pelvis_imu_offset_imu	tibia_r_imu_offset_imu	femur_r_imu_offset_imu	tibia_l_imu_offset_imu	femur_l_imu_offset_imu	toes_r_imu_offset_imu	toes_l_imu_offset_imu
				X1	Y1	Z1	X2	Y2	Z2	X3	Y3	Z3	X4	Y4	Z4	X5	Y5	Z5	X6	Y6	Z6	X7	Y7	Z7	X8		Y8	Z8	

1407	14.06000000	-0.88959046	-0.23686283	0.21881301	-0.63054751	0.11001813	-0.72232150	-0.53275555	-0.61947792	-0.03345625	-0.80715780	-0.29114547	0.09618460	-0.50996409	0.61093608	0.25394030	-0.53430109	0.39462992	0.22569410	-0.74271834	-0.12145342	-0.26737534	-0.78862456	-0.19371718	-0.19866255
1408	14.07000000	-0.88466738	-0.23262258	0.21930838	-0.62880479	0.10702000	-0.71826306	-0.52626313	-0.62524886	-0.03456970	-0.80197615	-0.29946596	0.09747791	-0.51939466	0.60000037	0.25578150	-0.54264628	0.39485814	0.21777166	-0.74436124	-0.12351306	-0.26667450	-0.77928798	-0.19974573	-0.21869903
1409	14.08000000	-0.88207177	-0.22641335	0.21413482	-0.62525971	0.11189413	-0.71498839	-0.52561292	-0.62510078	-0.03456483	-0.80042985	-0.30911632	0.09208913	-0.52570564	0.58919007	0.24612771	-0.54889855	0.38491789	0.21162937	-0.74297160	-0.12103709	-0.26111266	-0.76899600	-0.20456578	-0.23040358
1410	14.09000000	-0.88666630	-0.23147303	0.21483045	-0.63123474	0.11282212	-0.71255263	-0.52087994	-0.62779766	-0.03395912	-0.79736094	-0.31068800	0.08808921	-0.54556615	0.58458849	0.24219202	-0.55271429	0.37281254	0.21198410	-0.74819950	-0.11816770	-0.25284147	-0.75822339	-0.21200190	-0.24497126
1411	14.10000000	-0.88840179	-0.22672253	0.21685526	-0.63468371	0.11012564	-0.71196132	-0.51531532	-0.63668772	-0.04337493	-0.79848627	-0.31532070	0.08964103	-0.56342202	0.57205860	0.24353969	-0.55570568	0.36787933	0.20941411	-0.75321390	-0.12141023	-0.24952444	-0.74996020	-0.21540274	-0.26246012
1412	14.11000000	-0.89035268	-0.21557922	0.22020812	-0.63346841	0.11497946	-0.71612195	-0.51609279	-0.63987260	-0.04238789	-0.79528410	-0.32011847	0.08673142	-0.56866566	0.55481913	0.23817685	-0.55945650	0.36663691	0.20618770	-0.75179378	-0.12275527	-0.24539788	-0.74544382	-0.22015127	-0.27785049
1413	14.12000000	-0.89561513	-0.21726422	0.22164988	-0.63689438	0.11568715	-0.71291923	-0.50936288	-0.64390888	-0.04415251	-0.79454557	-0.32708716	0.08494779	-0.58421798	0.54594365	0.23835268	-0.56758232	0.35459716	0.20216209	-0.75304009	-0.12710157	-0.24004629	-0.73588552	-0.23053170	-0.28513503
1414	14.13000000	-0.89083392	-0.21339753	0.21805335	-0.63679444	0.11416683	-0.70924186	-0.50431668	-0.64975651	-0.04366544	-0.79289048	-0.33097699	0.08348756	-0.59409605	0.53084626	0.23315419	-0.57426524	0.34687081	0.20229483	-0.75438835	-0.13299956	-0.23432933	-0.72330859	-0.23556107	-0.29578150
1415	14.14000000	-0.89492906	-0.20841002	0.21845409	-0.64118322	0.12109679	-0.70725646	-0.49900540	-0.65303021	-0.04366637	-0.78679262	-0.33359611	0.08555821	-0.60406345	0.51496856	0.23320407	-0.57694624	0.34395048	0.19904546	-0.75333337	-0.13506032	-0.23062513	-0.71572863	-0.24500940	-0.30694446
1416	14.15000000	-0.90200695	-0.20741575	0.21944090	-0.64240529	0.12456026	-0.70565993	-0.49310121	-0.65334265	-0.05086333	-0.78900479	-0.33808818	0.08496033	-0.61895402	0.50184014	0.23615917	-0.57907156	0.33506851	0.19958258	-0.75721203	-0.14002193	-0.22500502	-0.70997838	-0.25309009	-0.32647741
1417	14.16000000	-0.89236665	-0.20283161	0.22067731	-0.63974987	0.12254566	-0.70743757	-0.49099302	-0.66218796	-0.05329593	-0.79012970	-0.34185167	0.07908646	-0.63349946	0.48371264	0.22749339	-0.57988202	0.32081046	0.20046984	-0.76005439	-0.14225472	-0.22021442	-0.70491684	-0.24876549	-0.34259126
1418	14.17000000	-0.88991496	-0.19680219	0.22060387	-0.64490785	0.12921583	-0.70055018	-0.48451635	-0.66857965	-0.05504672	-0.78875814	-0.34009864	0.07751506	-0.64480740	0.47181682	0.22752576	-0.58635535	0.30997301	0.20465245	-0.75643242	-0.14172992	-0.22033817	-0.69658238	-0.25395331	-0.34408067
1419	14.18000000	-0.89129702	-0.19413250	0.22634421	-0.64576086	0.13378589	-0.70218284	-0.48018070	-0.66459358	-0.05864096	-0.78768773	-0.34447678	0.07526940	-0.65665593	0.45635171	0.22718019	-0.58907071	0.30264088	0.20742025	-0.75645218	-0.14904233	-0.21035264	-0.68792414	-0.26261227	-0.35176354
1420	14.19000000	-0.89407922	-0.19195168	0.22744331	-0.64384297	0.13321960	-0.70183734	-0.47217024	-0.67045417	-0.06289907	-0.78580420	-0.35334287	0.07306807	-0.66899988	0.43712059	0.22681911	-0.59028919	0.29614510	0.20553405	-0.75859211	-0.15565677	-0.20882090	-0.68316283	-0.26655163	-0.36699753
1421	14.20000000	-0.89493599	-0.18420892	0.22313507	-0.64590115	0.13930632	-0.69389705	-0.47177498	-0.67458576	-0.06799888	-0.78027823	-0.35586022	0.06541042	-0.67827218	0.42565954	0.22781586	-0.59496730	0.28963370	0.20457456	-0.76121187	-0.15774459	-0.21098565	-0.67531218	-0.26804497	-0.37766446
1422	14.21000000	-0.89724232	-0.18089314	0.22657303	-0.64703394	0.14622625	-0.68740108	-0.46635333	-0.67685480	-0.07599439	-0.78012602	-0.36286536	0.06662461	-0.68694416	0.40998586	0.22190193	-0.59224963	0.28237908	0.20401283	-0.76046315	-0.16212560	-0.20080702	-0.66383572	-0.27140901	-0.38742038
1423	14.22000000	-0.90009824	-0.18310202	0.22753517	-0.64804508	0.14904979	-0.68879487	-0.45620921	-0.68345378	-0.06988692	-0.78461356	-0.36156360	0.06899789	-0.69354955	0.39213038	0.22429791	-0.59914492	0.27247022	0.20850064	-0.76089964	-0.16766075	-0.19797615	-0.65750258	-0.27522601	-0.39812263
1424	14.23000000	-0.89808585	-0.18188489	0.22650405	-0.65693486	0.15677345	-0.68873868	-0.45252433	-0.68521484	-0.07533443	-0.78329372	-0.36104723	0.06418219	-0.70301039	0.38199686	0.21714968	-0.60348706	0.26870116	0.21119151	-0.76557877	-0.17873628	-0.19280577	-0.65274908	-0.27508570	-0.40604446
1425	14.24000000	-0.89845799	-0.17795067	0.22331951	-0.65841799	0.15912652	-0.68079230	-0.44359497	-0.69095160	-0.08415774	-0.77868417	-0.36517748	0.06175672	-0.70967863	0.37364356	0.21627648	-0.60455298	0.26652576	0.20930771	-0.76980327	-0.18276061	-0.18363426	-0.64352109	-0.27878758	-0.41867978
1426	14.25000000	-0.89940870	-0.17689831	0.22405967	-0.65830604	0.16179746	-0.68028425	-0.43200203	-0.69651727	-0.07976499	-0.78098523	-0.36647761	0.05588804	-0.71205959	0.36363226	0.22331564	-0.61013641	0.25784719	0.20841276	-0.77212240	-0.18741776	-0.17666131	-0.63870594	-0.28264548	-0.42592117
1427	14.26000000	-0.89444021	-0.17848134	0.22370382	-0.66502421	0.16829289	-0.67564631	-0.42513939	-0.69970670	-0.08421081	-0.78093727	-0.37011572	0.04836998	-0.71503389	0.35298040	0.21638871	-0.61029689	0.24944836	0.20728523	-0.77647312	-0.19699135	-0.16977776	-0.63222026	-0.28267762	-0.42432679
1428	14.27000000	-0.89523545	-0.17896870	0.22466167	-0.66340948	0.16915100	-0.66827813	-0.42536302	-0.70707969	-0.08900689	-0.77785181	-0.37275488	0.04417992	-0.71937009	0.34737277	0.21633453	-0.60907678	0.24023899	0.20612983	-0.77329063	-0.20253348	-0.16647440	-0.62913576	-0.28540478	-0.43286155
1429	14.28000000	-0.89650424	-0.17491750	0.22774662	-0.66549974	0.17271087	-0.66225779	-0.41482029	-0.71071381	-0.08923924	-0.77788076	-0.37049137	0.04105397	-0.72413662	0.34749702	0.21810705	-0.61345911	0.24137669	0.20626410	-0.77617775	-0.20771762	-0.15989888	-0.62717682	-0.28639800	-0.43892240
1430	14.29000000	-0.89762397	-0.17266194	0.22583098	-0.67199929	0.17662665	-0.65958757	-0.40705672	-0.71422608	-0.09016627	-0.77438105	-0.37162740	0.03669057	-0.71907593	0.34464053	0.21760353	-0.61570517	0.23633175	0.20761442	-0.77901100	-0.21244503	-0.15141933	-0.62460708	-0.28625860	-0.43898261
1431	14.30000000	-0.89819275	-0.17380410	0.22366534	-0.66908734	0.18258129	-0.65523156	-0.39710910	-0.72223925	-0.09233180	-0.77623693	-0.37520592	0.02989637	-0.71602780	0.34330661	0.21937059	-0.61357122	0.22955620	0.20909686	-0.78331364	-0.21938790	-0.14162205	-0.62393750	-0.28582298	-0.44040115
1432	14.31000000	-0.89357753	-0.17780740	0.22133615	-0.67097010	0.19223058	-0.65643770	-0.38707400	-0.72955031	-0.09424991	-0.77646362	-0.37730481	0.02139682	-0.72092001	0.34518228	0.22601848	-0.61269084	0.23078957	0.20816641	-0.79360494	-0.22372325	-0.13222285	-0.62262506	-0.28056436	-0.44098316
1433	14.32000000	-0.89331111	-0.17862504	0.22061254	-0.67342987	0.19687388	-0.65694741	-0.37960614	-0.72863888	-0.09713680	-0.77367045	-0.37750897	0.01543671	-0.71547528	0.34505529	0.22179910	-0.61193554	0.22387390	0.21126026	-0.79513585	-0.23169584	-0.11650644	-0.63068025	-0.27624457	-0.43610747
1434	14.33000000	-0.89923614	-0.17751533	0.21966917	-0.67534753	0.20066426	-0.64708005	-0.36787895	-0.73361205	-0.10366062	-0.78031381	-0.37431880	0.01335445	-0.70617850	0.35165195	0.22028137	-0.61540750	0.21844372	0.21314969	-0.79828402	-0.23889552	-0.10167379	-0.64039068	-0.26625110	-0.42051422
1435	14.34000000	-0.89954533	-0.18217414	0.21735877	-0.67913399	0.20631171	-0.63980363	-0.35267658	-0.73928966	-0.10556170	-0.78006279	-0.36813657	0.00466138	-0.70462335	0.36466952	0.22977941	-0.61335448	0.21469908	0.21668961	-0.80176805	-0.24579646	-0.08095692	-0.64848453	-0.26733389	-0.40225465
1436	14.35000000	-0.89854781	-0.18238036	0.21558188	-0.67464474	0.21115090	-0.63864569	-0.33735312	-0.74923369	-0.10409732	-0.78205213	-0.36630080	-0.00792384	-0.70009210	0.36999895	0.23438084	-0.61162596	0.21655220	0.22111800	-0.80152840	-0.24761638	-0.04578153	-0.66026145	-0.26521459	-0.39206867
1437	14.36000000	-0.89588169	-0.18428393	0.21874446	-0.67187953	0.21815945	-0.63691348	-0.32476618	-0.75910597	-0.10701726	-0.78713155	-0.36020462	-0.01709577	-0.68675000	0.38345467	0.24486771	-0.61451804	0.21840999	0.22601789	-0.79949121	-0.24738088	-0.01597470	-0.66417343	-0.25985099	-0.39031065
1438	14.37000000	-0.89515231	-0.18985918	0.21354628	-0.67009664	0.22923004	-0.63199814	-0.30569015	-0.75819420	-0.10705552	-0.79064217	-0.34882523	-0.02425021	-0.68220927	0.38829864	0.25343407	-0.60959076	0.21492335	0.22850906	-0.80327176	-0.25535198	0.01819070	-0.66537595	-0.25794271	-0.38576908
1439	14.38000000	-0.90030908	-0.18927300	0.21469831	-0.66894355	0.23250225	-0.62882484	-0.28789358	-0.76725999	-0.11127555	-0.79935178	-0.33897635	-0.03092340	-0.68069479	0.39638942	0.25217049	-0.60733417	0.21587149	0.22752814	-0.80721411	-0.26050907	0.05878217	-0.67200513	-0.25131843	-0.37929588
1440	14.39000000	-0.89728851	-0.19324422	0.21428137	-0.66981265	0.23403920	-0.63416675	-0.26981802	-0.77384173	-0.11230242	-0.80543707	-0.32056813	-0.04163069	-0.67124482	0.40477319	0.25528120	-0.60834980	0.21504668	0.23008977	-0.79706292	-0.27045249	0.09952314	-0.67779254	-0.25598095	-0.37716926
1441	14.40000000	-0.89182265	-0.19644013	0.20835833	-0.67505933	0.23786556	-0.63492365	-0.25221934	-0.78196621	-0.10852201	-0.81315854	-0.30602789	-0.04980860	-0.66609469	0.40160056	0.26177059	-0.60575052	0.21794715	0.23373439	-0.78526534	-0.27312798	0.14764827	-0.68023936	-0.25469578	-0.37771334
1442	14.41000000	-0.89168241	-0.19872927	0.20875783	-0.67847476	0.23924319	-0.62664526	-0.23271751	-0.79336069	-0.09966579	-0.82278775	-0.28878833	-0.05799543	-0.66229981	0.41634644	0.26462268	-0.61034114	0.21977523	0.23582091	-0.78114473	-0.27891132	0.18723428	-0.67855104	-0.24858004	-0.36963827
1443	14.42000000	-0.88959260	-0.20621418	0.21357087	-0.67809149	0.23527705	-0.62650006	-0.21369962	-0.79422414	-0.08229097	-0.82186809	-0.26654143	-0.06965206	-0.65733245	0.42288393	0.27113756	-0.60654166	0.22207630	0.23701235	-0.76831613	-0.29091334	0.21880038	-0.67779200	-0.25015843	-0.37023735
1444	14.43000000	-0.89131556	-0.21100240	0.21348068	-0.67577954	0.23178811	-0.62745639	-0.19596065	-0.79957986	-0.06802597	-0.82803352	-0.24984344	-0.08115397	-0.65591114	0.42126258	0.27936531	-0.60509333	0.22419557	0.23675108	-0.75496552	-0.29593018	0.25546583	-0.67592548	-0.25627973	-0.37536683
1445	14.44000000	-0.89151804	-0.21613323	0.21076704	-0.67274446	0.23188640	-0.63006489	-0.17899954	-0.80234879	-0.05456991	-0.83819758	-0.23262067	-0.09700630	-0.65261598	0.43054811	0.28510580	-0.60125975	0.22659955	0.23773385	-0.74035717	-0.30121432	0.28216403	-0.67710209	-0.26207565	-0.37277407
1446	14.45000000	-0.88703278	-0.22259032	0.21081492	-0.67480797	0.22805504	-0.63130742	-0.16448606	-0.80520534	-0.04136203	-0.83593152	-0.21246438	-0.10681019	-0.64811570	0.43238197	0.28492185	-0.59951728	0.22777448	0.25625053	-0.73117743	-0.30512141	0.29507729	-0.67172716	-0.26517941	-0.37282563
